<?xml version="1.0" encoding="UTF-8"?>
<svg width="186px" height="28px" viewBox="0 0 186 28" version="1.1" xmlns="http://www.w3.org/2000/svg" xmlns:xlink="http://www.w3.org/1999/xlink">
    <defs></defs>
    <g id="Final-version" stroke="none" stroke-width="1" fill="none" fill-rule="evenodd">
        <g id="1456-MAMS-users-add" transform="translate(-16.000000, -18.000000)">
            <g id="logo-pantaflix-pro" transform="translate(16.000000, 18.000000)">
                <g id="Group-2">
                    <g id="Group">
                        <path d="M169.65,4.55 L184.907951,4.55 C185.455845,4.55 185.9,5.00249234 185.9,5.54850044 L185.9,11.9677158 C185.9,12.5191723 185.453031,12.9662162 184.896537,12.9662162 L165.503463,12.966216 C164.949266,12.966216 164.734667,12.582719 165.022151,12.1129085 L169.65,4.55 Z M182.642774,6.73250761 C182.301565,6.52434834 181.903493,6.42027027 181.448547,6.42027027 C180.989309,6.42027027 180.589091,6.52434834 180.247882,6.73250761 C179.906672,6.94066688 179.644868,7.22607685 179.46246,7.58874609 C179.280052,7.95141533 179.18885,8.36021684 179.18885,8.81516287 C179.18885,9.2701089 179.280052,9.6789104 179.46246,10.0415796 C179.644868,10.4042489 179.906672,10.6896589 180.247882,10.8978181 C180.589091,11.1059774 180.989309,11.2100555 181.448547,11.2100555 C181.903493,11.2100555 182.301565,11.1059774 182.642774,10.8978181 C182.983984,10.6896589 183.245789,10.4042489 183.428196,10.0415796 C183.610604,9.6789104 183.701806,9.2701089 183.701806,8.81516287 C183.701806,8.36021684 183.610604,7.95141533 183.428196,7.58874609 C183.245789,7.22607685 182.983984,6.94066688 182.642774,6.73250761 Z M177.811143,11.1006114 L178.815453,11.1006114 L177.650196,9.33663142 C177.954924,9.24220866 178.196342,9.07482536 178.374458,8.83447652 C178.552573,8.59412767 178.64163,8.30657176 178.64163,7.97180015 C178.64163,7.68853187 178.577252,7.4385299 178.448493,7.22178674 C178.319735,7.00504359 178.140549,6.83551436 177.91093,6.71319396 C177.681311,6.59087357 177.422725,6.52971429 177.135165,6.52971429 L174.972036,6.52971429 L174.972036,11.1006114 L175.87334,11.1006114 L175.87334,9.40744813 L176.716703,9.40744813 L177.811143,11.1006114 Z M173.587891,6.70997502 C173.360418,6.5898006 173.094322,6.52971429 172.789594,6.52971429 L170.587838,6.52971429 L170.587838,11.1006114 L171.489142,11.1006114 L171.489142,9.40744813 L172.789594,9.40744813 C173.094322,9.40744813 173.360418,9.34843479 173.587891,9.23040634 C173.815364,9.11237789 173.990259,8.9449946 174.112579,8.72825144 C174.234899,8.51150829 174.296059,8.25936038 174.296059,7.97180015 C174.296059,7.68423993 174.234899,7.43209202 174.112579,7.21534886 C173.990259,6.99860571 173.815364,6.83014944 173.587891,6.70997502 Z M171.489142,7.27650875 L172.628647,7.27650875 C172.868996,7.27650875 173.057838,7.33659506 173.195181,7.45676949 C173.332523,7.57694391 173.401193,7.74861908 173.401193,7.97180015 C173.401193,8.19068928 173.332523,8.36021851 173.195181,8.48039293 C173.057838,8.60056736 172.868996,8.66065367 172.628647,8.66065367 L171.489142,8.66065367 L171.489142,7.27650875 Z M180.746818,7.41492324 C180.948539,7.28401896 181.182446,7.2185678 181.448547,7.2185678 C181.714648,7.2185678 181.947482,7.28401896 182.147057,7.41492324 C182.346633,7.54582753 182.50114,7.73252428 182.610585,7.97501909 C182.72003,8.21751391 182.774751,8.49755903 182.774751,8.81516287 C182.774751,9.13705864 182.72003,9.41817674 182.610585,9.65852558 C182.50114,9.89887443 182.346633,10.0844982 182.147057,10.2154025 C181.947482,10.3463068 181.714648,10.4117579 181.448547,10.4117579 C181.182446,10.4117579 180.948539,10.3463068 180.746818,10.2154025 C180.545096,10.0844982 180.389516,9.89887443 180.280071,9.65852558 C180.170627,9.41817674 180.115905,9.13705864 180.115905,8.81516287 C180.115905,8.49755903 180.170627,8.21751391 180.280071,7.97501909 C180.389516,7.73252428 180.545096,7.54582753 180.746818,7.41492324 Z M175.87334,8.66065367 L175.87334,7.27650875 L176.974218,7.27650875 C177.214567,7.27650875 177.404483,7.33659506 177.543971,7.45676949 C177.683459,7.57694391 177.753202,7.74861908 177.753202,7.97180015 C177.753202,8.19068928 177.683459,8.36021851 177.543971,8.48039293 C177.404483,8.60056736 177.214567,8.66065367 176.974218,8.66065367 L175.87334,8.66065367 Z" id="Combined-Shape" fill="#F8E71C"></path>
                        <path d="M118.745102,4.56637638 L129.305253,4.56637638 C129.595724,4.56637638 129.806949,4.80396568 129.806949,5.06791993 L129.806949,6.54649041 C129.806949,6.81029225 129.595724,7.04803395 129.305253,7.04803395 L120.962805,7.04803395 L120.962805,13.1465657 L128.011542,13.1465657 C128.275648,13.1465657 128.51339,13.3840026 128.51339,13.6481092 L128.51339,15.10001 C128.51339,15.3641166 128.275648,15.6015535 128.011542,15.6015535 L120.962805,15.6015535 L120.962805,22.5449827 C120.962805,22.8090893 120.725216,23.0465262 120.461109,23.0465262 L118.745102,23.0465262 C118.454783,23.0465262 118.243558,22.8090893 118.243558,22.5449827 L118.243558,5.06791993 C118.243558,4.80396568 118.454783,4.56637638 118.745102,4.56637638 Z M133.461907,22.5449827 L133.461907,5.06791993 C133.461907,4.80396568 133.673132,4.56637638 133.963451,4.56637638 L135.705976,4.56637638 C135.96993,4.56637638 136.207519,4.80396568 136.207519,5.06791993 L136.207519,20.591386 L143.36202,20.591386 C143.652492,20.591386 143.863716,20.8289753 143.863716,21.0929295 L143.863716,22.5449827 C143.863716,22.8089369 143.652492,23.0465262 143.36202,23.0465262 L133.963451,23.0465262 C133.673132,23.0465262 133.461907,22.8089369 133.461907,22.5449827 Z M147.201823,22.5449827 L147.201823,5.06791993 C147.201823,4.80396568 147.439412,4.56637638 147.703366,4.56637638 L149.445891,4.56637638 C149.709845,4.56637638 149.947435,4.80396568 149.947435,5.06791993 L149.947435,22.5449827 C149.947435,22.8089369 149.709845,23.0465262 149.445891,23.0465262 L147.703366,23.0465262 C147.439412,23.0465262 147.201823,22.8089369 147.201823,22.5449827 Z M153.62885,22.3073781 L159.067343,13.5688468 L153.840074,5.30549399 C153.62885,4.96229251 153.840074,4.56636114 154.288888,4.56636114 L156.532956,4.56636114 C156.717663,4.56636114 156.902522,4.67197332 156.981617,4.80395044 L160.651374,11.1135541 L160.730468,11.1135541 L164.505837,4.80395044 C164.558567,4.69833827 164.717061,4.56636114 164.928133,4.56636114 L167.172202,4.56636114 C167.347156,4.56636114 167.665166,4.56688223 167.851982,4.56721813 C167.940827,4.56737787 168.000001,4.56636114 168.000001,4.56636114 C168.000001,4.56636114 167.710743,5.15970305 167.621015,5.30549399 L162.393746,13.5688468 L167.805875,22.3073781 C168.017099,22.6769445 167.805875,23.0466634 167.357061,23.0466634 L165.324217,23.0466634 C165.112993,23.0466634 164.928133,22.9145338 164.875404,22.8089217 L160.756986,16.0505043 L160.651374,16.0505043 L156.585686,22.8089217 C156.506439,22.9145338 156.348097,23.0466634 156.136872,23.0466634 L154.104028,23.0466634 C153.62885,23.0466634 153.417625,22.6505796 153.62885,22.3073781 Z" id="Combined-Shape" fill="#FFFFFF"></path>
                        <path d="M104.843903,16.7104966 L106.823864,12.3544896 L106.850382,12.3544896 L108.856708,16.7104966 L104.843903,16.7104966 Z M115.694525,22.3602147 L107.431173,4.59268037 C107.351925,4.4343383 107.167066,4.30236118 106.982359,4.30236118 L106.718405,4.30236118 C106.533545,4.30236118 106.348686,4.4343383 106.269439,4.59268037 L98.0062383,22.3602147 C97.8477438,22.7034162 98.0589682,23.0466176 98.4550519,23.0466176 L101.359006,23.0466176 C101.887067,23.0466176 102.177538,22.7297811 102.309515,22.4129446 L103.259873,20.3010058 L110.440739,20.3010058 L111.391248,22.3865796 C111.628838,22.8881232 111.839909,23.0466176 112.31524,23.0466176 L115.245559,23.0466176 C115.641643,23.0466176 115.852867,22.7034162 115.694525,22.3602147 L115.694525,22.3602147 Z" id="Fill-26" fill="#FFFFFF"></path>
                        <path d="M89.572763,22.5449827 C89.572763,22.8089369 89.8103523,23.0465262 90.0743066,23.0465262 L93.2423671,23.0465262 C93.5064737,23.0465262 93.744063,22.8089369 93.744063,22.5449827 L93.744063,8.4472048 L97.5192793,8.4472048 C97.8097508,8.4472048 98.0208228,8.2096155 98.0208228,7.94550886 L98.0208228,5.06791993 C98.0208228,4.80396568 97.8097508,4.56637638 97.5192793,4.56637638 L85.7975468,4.56637638 C85.5070752,4.56637638 85.2958508,4.80396568 85.2958508,5.06791993 L85.2958508,7.94550886 C85.2958508,8.2096155 85.5070752,8.4472048 85.7975468,8.4472048 L89.572763,8.4472048 L89.572763,22.5449827 Z" id="Fill-28" fill="#FFFFFF"></path>
                        <path d="M66.5105839,22.5449827 C66.5105839,22.8089369 66.7481732,23.0465262 67.0121275,23.0465262 L70.1538231,23.0465262 C70.4442946,23.0465262 70.655519,22.8089369 70.655519,22.5449827 L70.655519,12.6975996 L70.6818839,12.6975996 L80.9515633,23.0201613 C81.1627876,23.2313856 81.347647,23.3106328 81.6116013,23.3106328 L81.8755555,23.3106328 C82.1396622,23.3106328 82.3772515,23.1521384 82.3772515,22.8354542 L82.3772515,5.06791993 C82.3772515,4.80396568 82.1396622,4.56637638 81.8755555,4.56637638 L78.707495,4.56637638 C78.4171758,4.56637638 78.2059515,4.80396568 78.2059515,5.06791993 L78.2059515,14.4401244 L78.1795865,14.4401244 L68.0417319,4.69835351 C67.83066,4.48712915 67.6458006,4.30226974 67.3818463,4.30226974 L66.9857625,4.30226974 C66.7218083,4.30226974 66.484219,4.5134941 66.484219,4.77760074 L66.5105839,22.5449827 Z" id="Fill-30" fill="#FFFFFF"></path>
                        <path d="M53.4277498,16.7104966 L55.4077114,12.3544896 L55.4342287,12.3544896 L57.4405553,16.7104966 L53.4277498,16.7104966 Z M64.2782199,22.3602147 L56.0150195,4.59268037 C55.9357723,4.4343383 55.7510653,4.30236118 55.5662059,4.30236118 L55.3020992,4.30236118 C55.1173922,4.30236118 54.9325328,4.4343383 54.853438,4.59268037 L46.5900852,22.3602147 C46.4317431,22.7034162 46.6428151,23.0466176 47.0388989,23.0466176 L49.9428527,23.0466176 C50.4709136,23.0466176 50.7612328,22.7297811 50.8933623,22.4129446 L51.8437195,20.3010058 L59.0245856,20.3010058 L59.9750952,22.3865796 C60.2126845,22.8881232 60.4237564,23.0466176 60.8990874,23.0466176 L63.8295586,23.0466176 C64.22549,23.0466176 64.4367144,22.7034162 64.2782199,22.3602147 L64.2782199,22.3602147 Z" id="Fill-32" fill="#FFFFFF"></path>
                        <path d="M41.1662217,12.486421 L38.4998572,12.486421 L38.4998572,8.44709812 L41.1662217,8.44709812 C42.3014383,8.44709812 43.0934535,9.29199554 43.0934535,10.4008472 C43.0934535,11.5887937 42.3014383,12.486421 41.1662217,12.486421 M41.245469,4.5662697 L34.882983,4.5662697 C34.5925114,4.5662697 34.381287,4.8040114 34.381287,5.06796565 L34.381287,22.5450284 C34.381287,22.8089826 34.5925114,23.0465719 34.882983,23.0465719 L37.9981612,23.0465719 C38.2622679,23.0465719 38.4998572,22.8089826 38.4998572,22.5450284 L38.4998572,16.3408845 L41.2718339,16.3408845 C44.7302136,16.3408845 47.1591413,13.6743675 47.1591413,10.4008472 C47.1591413,7.20642173 44.7302136,4.5662697 41.245469,4.5662697" id="Fill-34" fill="#FFFFFF"></path>
                        <path d="M21.674464,14.66136 L17.491264,17.0768267 L17.491264,11.15688 L21.674464,13.5723467 C21.9585707,13.7358667 21.989184,14.0076533 21.989184,14.11704 C21.989184,14.2260533 21.9585707,14.49784 21.674464,14.66136 L21.674464,14.66136 Z M10.8713173,20.8990133 C10.5872107,21.0636533 10.3359573,20.95352 10.2418773,20.8990133 C10.1470507,20.8445067 9.92715733,20.6821067 9.92715733,20.35432 L9.92715733,15.3930933 L15.2363307,18.37864 L10.8713173,20.8990133 Z M15.9979307,11.09192 L15.9979307,17.0936267 L10.696224,14.1121867 L15.9979307,11.09192 Z M10.2418773,7.33469333 C10.2989973,7.30146667 10.4143573,7.24808 10.5599573,7.24808 C10.6532907,7.24808 10.760064,7.27010667 10.8713173,7.33469333 L15.1948907,9.83117333 L9.92715733,12.8320267 L9.92715733,7.87938667 C9.92715733,7.5516 10.1470507,7.3892 10.2418773,7.33469333 L10.2418773,7.33469333 Z M22.4211307,12.2787467 L11.617984,6.04109333 C10.952704,5.65768 10.159744,5.65805333 9.49483733,6.04146667 C8.83067733,6.42488 8.433824,7.11218667 8.433824,7.87938667 L8.433824,20.35432 C8.433824,21.12152 8.83067733,21.8088267 9.49483733,22.19224 C9.82747733,22.3841333 10.1918507,22.48008 10.5565973,22.48008 C10.9209707,22.48008 11.2857173,22.3845067 11.617984,22.1926133 L22.4211307,15.95496 C23.085664,15.5715467 23.4825173,14.88424 23.4825173,14.11704 C23.4825173,13.3494667 23.085664,12.6625333 22.4211307,12.2787467 L22.4211307,12.2787467 Z" id="play" fill="#FFFFFF"></path>
                        <path d="M13.96864,26.44432 C7.0896,26.44432 1.49333333,20.8480533 1.49333333,13.9690133 C1.49333333,7.08997333 7.0896,1.49333333 13.96864,1.49333333 C20.84768,1.49333333 26.44432,7.08997333 26.44432,13.9690133 C26.44432,20.8480533 20.84768,26.44432 13.96864,26.44432 M13.96864,0 C6.2664,0 0,6.2664 0,13.9690133 C0,21.6712533 6.2664,27.9376533 13.96864,27.9376533 C21.6712533,27.9376533 27.9376533,21.6712533 27.9376533,13.9690133 C27.9376533,6.2664 21.6712533,0 13.96864,0" id="circle" fill="#FFFFFF"></path>
                    </g>
                </g>
            </g>
        </g>
    </g>
</svg>